<svg width="24" height="24" viewBox="0 0 24 24" fill="none" xmlns="http://www.w3.org/2000/svg">
    <path
        d="M21 6.82098C21 8.98661 19.2723 10.6781 17.1429 10.6781C16.1022 10.6781 15.158 10.3045 14.467 9.63348L10.6862 11.5219C10.7063 11.6786 10.6781 11.8031 10.6781 12C10.6781 12.1607 10.7063 12.2853 10.6862 12.4781L14.467 14.3665C15.158 13.6955 16.1022 13.2857 17.1429 13.2857C19.2723 13.2857 21 14.9772 21 17.1429C21 19.2723 19.2723 21 17.1429 21C14.9772 21 13.2857 19.2723 13.2857 17.1429C13.2857 16.946 13.2938 16.8214 13.3138 16.6647L9.53304 14.7763C8.84196 15.4473 7.89777 15.8571 6.85714 15.8571C4.72687 15.8571 3 14.1295 3 12C3 9.83437 4.72687 8.14286 6.85714 8.14286C7.89777 8.14286 8.84196 8.55268 9.53304 9.22366L13.3138 7.33527C13.2938 7.14241 13.2857 7.01786 13.2857 6.85714C13.2857 4.72687 14.9772 3 17.1429 3C19.2723 3 21 4.72687 21 6.85714V6.82098ZM6.82098 13.2496C7.5683 13.2496 8.1067 12.7112 8.1067 11.9638C8.1067 11.2888 7.5683 10.6781 6.82098 10.6781C6.14719 10.6781 5.53527 11.2888 5.53527 11.9638C5.53527 12.7112 6.14719 13.2496 6.82098 13.2496ZM17.1429 5.53527C16.4317 5.53527 15.8571 6.14598 15.8571 6.82098C15.8571 7.5683 16.4317 8.1067 17.1429 8.1067C17.854 8.1067 18.4286 7.5683 18.4286 6.82098C18.4286 6.14598 17.854 5.53527 17.1429 5.53527ZM17.1429 18.4286C17.854 18.4286 18.4286 17.854 18.4286 17.1429C18.4286 16.4317 17.854 15.8571 17.1429 15.8571C16.4317 15.8571 15.8571 16.4317 15.8571 17.1429C15.8571 17.854 16.4317 18.4286 17.1429 18.4286Z"
        fill="#FFA500" />
</svg>
