<svg width="36" height="36" viewBox="0 0 36 36" fill="none" xmlns="http://www.w3.org/2000/svg">
<g id="image">
<path id="Vector" d="M28.1198 6.16797H7.83412C6.0137 6.16797 4.50024 7.68147 4.50024 9.54891V26.4536C4.50024 28.3211 6.01374 29.8346 7.83364 29.8346H28.1193C29.9867 29.8346 31.5002 28.3211 31.5002 26.4536V9.54891C31.5007 7.68147 30.0321 6.16797 28.1198 6.16797ZM10.3698 9.54891C11.7703 9.54891 12.9055 10.6842 12.9055 12.0846C12.9055 13.4851 11.8173 14.6203 10.3698 14.6203C8.92236 14.6203 7.83412 13.4851 7.83412 12.0846C7.83412 10.6842 9.0164 9.54891 10.3698 9.54891ZM28.067 26.0099C27.919 26.2846 27.6338 26.4536 27.3221 26.4536H8.83309C8.51501 26.4536 8.22399 26.2751 8.07977 25.9914C7.93555 25.7079 7.96276 25.3675 8.15024 25.1102L11.8481 20.0388C12.0075 19.8185 12.261 19.6917 12.5305 19.6917C12.7999 19.6917 13.0543 19.8207 13.2135 20.039L14.9283 22.3904L19.8571 15.0421C20.0161 14.763 20.2802 14.6203 20.5602 14.6203C20.8402 14.6203 21.107 14.7615 21.2633 14.9967L28.0252 25.1395C28.199 25.3971 28.2149 25.7299 28.067 26.0099Z" fill="white"/>
</g>
</svg>
