<svg width="24" height="24" viewBox="0 0 24 24" fill="none" xmlns="http://www.w3.org/2000/svg">
    <g filter="url(#filter0_d_2702_34228)">
        <path d="M19.1297 17.5797C19.5688 18.0189 19.5688 18.7314 19.1297 19.1706C18.6905 19.6099 17.978 19.6098 17.5387 19.1706L12 13.5906L6.42186 19.1688C5.98269 19.6079 5.27014 19.6079 4.83093 19.1688C4.39171 18.7296 4.39175 18.0171 4.83093 17.5778L10.4109 12.0016L4.82938 6.38127C4.39021 5.9421 4.39021 5.22955 4.82938 4.79033C5.26855 4.35112 5.9811 4.35116 6.42032 4.79033L12 10.4125L17.5781 4.8344C18.0173 4.39522 18.7298 4.39522 19.1691 4.8344C19.6083 5.27357 19.6082 5.98611 19.1691 6.42533L13.5891 12.0016L19.1297 17.5797Z" fill="white"/>
    </g>
    <defs>
        <filter id="filter0_d_2702_34228" x="2.5" y="3.46094" width="18.9985" height="19.0391" filterUnits="userSpaceOnUse" color-interpolation-filters="sRGB">
            <feFlood flood-opacity="0" result="BackgroundImageFix"/>
            <feColorMatrix in="SourceAlpha" type="matrix" values="0 0 0 0 0 0 0 0 0 0 0 0 0 0 0 0 0 0 127 0" result="hardAlpha"/>
            <feOffset dy="1"/>
            <feGaussianBlur stdDeviation="1"/>
            <feComposite in2="hardAlpha" operator="out"/>
            <feColorMatrix type="matrix" values="0 0 0 0 0 0 0 0 0 0 0 0 0 0 0 0 0 0 0.4 0"/>
            <feBlend mode="normal" in2="BackgroundImageFix" result="effect1_dropShadow_2702_34228"/>
            <feBlend mode="normal" in="SourceGraphic" in2="effect1_dropShadow_2702_34228" result="shape"/>
        </filter>
    </defs>
</svg>
