<svg width="26" height="26" viewBox="0 0 26 26" fill="none" xmlns="http://www.w3.org/2000/svg">
<circle cx="13" cy="13" r="13" fill="black"/>
<path d="M14.9721 13.0556L17.8466 10.1811C18.1993 9.82833 18.1993 9.25642 17.8466 8.90339L17.2077 8.26455C16.855 7.91182 16.2831 7.91182 15.93 8.26455L13.0556 11.139L10.1811 8.26455C9.82833 7.91182 9.25642 7.91182 8.90339 8.26455L8.26455 8.90339C7.91182 9.25613 7.91182 9.82804 8.26455 10.1811L11.139 13.0556L8.26455 15.93C7.91182 16.2828 7.91182 16.8547 8.26455 17.2077L8.90339 17.8466C9.25613 18.1993 9.82833 18.1993 10.1811 17.8466L13.0556 14.9721L15.93 17.8466C16.2828 18.1993 16.855 18.1993 17.2077 17.8466L17.8466 17.2077C18.1993 16.855 18.1993 16.2831 17.8466 15.93L14.9721 13.0556Z" fill="white"/>
</svg>
