<svg width="207" height="229" viewBox="0 0 207 229" fill="none" xmlns="http://www.w3.org/2000/svg">
    <g clip-path="url(#clip0_2170_33357)">
        <path
            d="M200 129C200 151.27 192.719 171.84 180.41 188.461C175.883 194.57 170.676 200.152 164.898 205.082C147.434 219.996 124.773 229 100 229C85.6523 229 72.0156 225.98 59.6836 220.539C54.3555 218.191 49.2734 215.391 44.4883 212.188C41.2148 210.004 38.0859 207.629 35.1016 205.082C29.3242 200.152 24.1172 194.57 19.5898 188.461C7.28125 171.84 0 151.27 0 129C0 106.73 7.28125 86.1602 19.5898 69.5391C27.3438 59.0703 37.0977 50.168 48.2812 43.3945C63.3711 34.2578 81.0703 29 100 29C100.129 29 100.262 29 100.391 29.0039C119.176 29.0742 136.734 34.3164 151.719 43.3945C162.902 50.1641 172.652 59.0664 180.41 69.5391C192.719 86.1602 200 106.73 200 129Z"
            fill="black" />
        <path
            d="M207 129C207 151.27 199.719 171.84 187.41 188.461C182.883 194.57 177.676 200.152 171.898 205.082C154.434 219.996 131.773 229 107 229C92.6523 229 79.0156 225.98 66.6836 220.539C61.3555 218.191 56.2734 215.391 51.4883 212.188C48.2148 210.004 45.0859 207.629 42.1016 205.082C36.3242 200.152 31.1172 194.57 26.5898 188.461C14.2812 171.84 7 151.27 7 129C7 106.73 14.2812 86.1602 26.5898 69.5391C34.3438 59.0703 44.0977 50.168 55.2812 43.3945C70.3711 34.2578 88.0703 29 107 29C107.129 29 107.262 29 107.391 29.0039C126.176 29.0742 143.734 34.3164 158.719 43.3945C169.902 50.1641 179.652 59.0664 187.41 69.5391C199.719 86.1602 207 106.73 207 129Z"
            fill="#FFA500" />
        <path fill-rule="evenodd" clip-rule="evenodd"
            d="M171.898 205.082C177.676 200.152 182.883 194.57 187.41 188.461C199.719 171.84 207 151.27 207 129C207 106.73 199.719 86.1602 187.41 69.5391C179.652 59.0664 169.902 50.1641 158.719 43.3945C143.734 34.3164 126.176 29.0742 107.391 29.0039C107.262 29 107.129 29 107 29C88.0703 29 70.3711 34.2578 55.2812 43.3945C44.0977 50.168 34.3438 59.0703 26.5898 69.5391C14.2812 86.1602 7 106.73 7 129C7 151.27 14.2812 171.84 26.5898 188.461C31.1172 194.57 36.3242 200.152 42.1016 205.082C45.0859 207.629 48.2148 210.004 51.4883 212.188C56.2734 215.391 61.3555 218.191 66.6836 220.539C79.0156 225.98 92.6523 229 107 229C131.773 229 154.434 219.996 171.898 205.082ZM27.7953 187.568C32.2553 193.587 37.3847 199.085 43.0752 203.941L42.1016 205.082L43.0753 203.941C46.0161 206.451 49.0979 208.79 52.3207 210.94L52.3227 210.941C57.0358 214.096 62.041 216.854 67.2884 219.166L67.2891 219.167C79.4339 224.526 92.8647 227.5 107 227.5C131.403 227.5 153.721 218.632 170.924 203.941L170.925 203.941C176.615 199.085 181.745 193.586 186.205 187.568C198.329 171.196 205.5 150.937 205.5 129C205.5 107.063 198.329 86.8036 186.205 70.4319C178.563 60.1153 168.958 51.3458 157.942 44.6778L157.941 44.6775C143.184 35.7366 125.891 30.5732 107.385 30.5039L107.365 30.5038L107.345 30.5032C107.243 30.5001 107.133 30.5 107 30.5C88.3518 30.5 70.9204 35.6788 56.0583 44.6776C45.042 51.3497 35.4335 60.1193 27.7953 70.4317M27.795 187.568C15.6713 171.196 8.5 150.937 8.5 129C8.5 107.063 15.6714 86.8035 27.7952 70.4319"
            fill="black" />
        <rect x="49.8548" y="0.854839" width="104.29" height="181.29" rx="8.26344" fill="black" />
        <rect x="49.8548" y="0.854839" width="104.29" height="181.29" rx="8.26344" stroke="black"
            stroke-width="1.70968" />
        <rect x="54.75" y="0.75" width="104.5" height="181.5" rx="8.36828" fill="white" />
        <rect x="64.75" y="10.75" width="84.5" height="29.5" rx="6.25" fill="#8E8E93" stroke="black"
            stroke-width="1.5" />
        <rect x="64.75" y="49.75" width="84.5" height="28.5" rx="6.25" fill="#8E8E93" stroke="black"
            stroke-width="1.5" />
        <rect x="64.75" y="87.75" width="84.5" height="29.5" rx="6.25" fill="#8E8E93" stroke="black"
            stroke-width="1.5" />
        <circle cx="70.5269" cy="128.849" r="2.84946" fill="black" />
        <line x1="79.8252" y1="128.1" x2="145.573" y2="128.1" stroke="black" stroke-width="1.5"
            stroke-linecap="round" />
        <circle cx="70.5269" cy="139.549" r="2.84946" fill="black" />
        <path d="M79.0752 139.549H121.817" stroke="black" stroke-width="1.5"
            stroke-linecap="round" />
        <rect x="64.75" y="155.75" width="84.5" height="16.5" rx="4.25" fill="#FFA500"
            stroke="black" stroke-width="1.5" />
        <rect x="54.75" y="0.75" width="104.5" height="181.5" rx="8.36828" stroke="black"
            stroke-width="1.5" />
    </g>
    <defs>
        <clipPath id="clip0_2170_33357">
            <rect width="207" height="229" fill="white" />
        </clipPath>
    </defs>
</svg>
