<svg width="36" height="36" viewBox="0 0 36 36" fill="none" xmlns="http://www.w3.org/2000/svg">
    <path d="M28.9071 5.84645L26.179 8.57626C23.9909 6.59064 21.1165 5.3987 18.0002 5.3987C12.6846 5.3987 8.02093 8.79282 6.38912 13.8475C6.08323 14.793 6.6027 15.8095 7.54843 16.1132C8.50299 16.4226 9.50931 15.8988 9.81531 14.955C10.9634 11.3893 14.254 8.9987 18.0002 8.9987C20.1355 8.9987 22.1065 9.79632 23.6365 11.1249L21.0996 13.6112C20.1996 14.5562 20.8577 16.165 22.1852 16.1987H30.4484C31.0334 16.1818 31.5002 15.7093 31.5002 15.1243V6.9197C31.5002 5.56689 29.8634 4.88964 28.9071 5.84645ZM28.4515 19.8887C27.4986 19.5828 26.4895 20.1031 26.1846 21.0469C25.0371 24.6081 21.7465 26.9987 18.0002 26.9987C15.865 26.9987 13.894 26.2011 12.364 24.8725L14.8502 22.3862C15.8009 21.4412 15.1427 19.8324 13.8152 19.7987H5.54987C4.96824 19.8156 4.50024 20.2881 4.50024 20.8731V29.08C4.50024 30.4322 6.13543 31.1095 7.09168 30.1526L9.81981 27.4228C12.0096 29.4062 14.884 30.5987 17.9496 30.5987C23.2624 30.5987 27.9284 27.2046 29.5596 22.15C29.9196 21.2049 29.3965 20.1418 28.4515 19.8887Z" fill="white"/>
</svg>
