<svg width="226" height="200" viewBox="0 0 226 200" fill="none" xmlns="http://www.w3.org/2000/svg">
    <path
        d="M62.6697 15.0361C77.6457 5.96833 95.211 0.75 114 0.75C114.131 0.75 114.252 0.750059 114.368 0.753562L114.378 0.753864L114.388 0.753901C133.033 0.823691 150.459 6.02652 165.33 15.036L165.33 15.0361C176.43 21.7549 186.107 30.5908 193.807 40.9855C206.024 57.4818 213.25 77.8966 213.25 100C213.25 122.103 206.024 142.518 193.807 159.015C189.314 165.079 184.146 170.619 178.412 175.512L178.411 175.512C161.077 190.314 138.588 199.25 114 199.25C99.7585 199.25 86.2248 196.253 73.9864 190.853L73.986 190.853C68.6983 188.523 63.6546 185.743 58.9055 182.564L58.9045 182.564C55.6564 180.397 52.551 178.04 49.5884 175.512L49.1016 176.082L49.5884 175.512C43.8544 170.619 38.6863 165.079 34.1926 159.015C21.9763 142.518 14.75 122.103 14.75 100C14.75 77.8966 21.9763 57.4818 34.1926 40.9854C41.8886 30.5948 51.5697 21.7589 62.6697 15.0361ZM62.6697 15.0361L62.2812 14.3945M62.6697 15.0361L62.2812 14.3945M62.2812 14.3945C51.0977 21.168 41.3438 30.0703 33.5898 40.5391L194.41 159.461C206.719 142.84 214 122.27 214 100C214 77.7305 206.719 57.1602 194.41 40.5391C186.652 30.0664 176.902 21.1641 165.719 14.3945C150.734 5.31641 133.176 0.0742188 114.391 0.00390625C114.262 0 114.129 0 114 0C95.0703 0 77.3711 5.25781 62.2812 14.3945Z"
        fill="black" stroke="black" stroke-width="1.5" />
    <path
        d="M188.82 33.2578V163.461C184.293 169.57 178.434 154.07 172.656 159C155.191 173.914 132.531 182.918 107.758 182.918C93.4102 182.918 79.7734 179.898 67.4414 174.457C62.1133 172.109 57.0312 169.309 52.2461 166.105C48.9727 163.922 45.8438 161.547 42.8594 159C37.082 154.07 32.5273 140.609 28 134.5V33.2578C28 25.0508 34.6523 18.3984 42.8594 18.3984H173.953C182.164 18.3945 188.82 25.0469 188.82 33.2578Z"
        fill="black" />
    <path
        d="M178.412 175.511L178.411 175.512C161.077 190.314 138.588 199.25 114 199.25C99.7585 199.25 86.2248 196.253 73.9864 190.853L73.986 190.853C68.6983 188.523 63.6546 185.743 58.9055 182.564L58.9045 182.564C55.6564 180.397 52.551 178.04 49.5884 175.512L49.1016 176.082L49.5884 175.511C43.917 170.672 38.7991 165.199 34.3398 159.213V29.2578C34.3398 21.465 40.6564 15.1484 48.4492 15.1484L179.543 15.1484L179.543 15.1484C187.34 15.1447 193.66 21.4613 193.66 29.2578V159.213C189.201 165.199 184.083 170.672 178.412 175.511Z"
        fill="#FFA500" stroke="black" stroke-width="1.5" />
    <path
        d="M73.9864 190.853L73.986 190.853C68.6983 188.523 63.6546 185.743 58.9055 182.564L58.9045 182.564C55.7524 180.461 52.7348 178.179 49.8516 175.735V57.2344C49.8516 52.4726 53.7074 48.6172 58.4648 48.6172H169.531C174.289 48.6172 178.148 52.473 178.148 57.2344V175.735C160.85 190.404 138.464 199.25 114 199.25C99.7585 199.25 86.2248 196.253 73.9864 190.853Z"
        fill="white" stroke="black" stroke-width="1.5" />
    <path
        d="M154.793 20.3906V46.6836C154.793 51.5977 150.813 55.5781 145.898 55.5781H84.0977C79.1836 55.5781 75.2031 51.5977 75.2031 46.6836V20.3906C75.2031 15.4766 79.1836 11.4961 84.0977 11.4961H99.6563C102.465 5.87109 108.281 2 115 2C116.047 2 117.07 2.09375 118.063 2.27344C122.766 3.11719 126.797 5.88672 129.324 9.72656C129.355 9.77344 129.387 9.82031 129.414 9.87109C129.656 10.2422 129.883 10.625 130.09 11.0195C130.184 11.1914 130.27 11.3555 130.344 11.5H145.902C150.816 11.5 154.793 15.4766 154.793 20.3906Z"
        fill="black" />
    <path
        d="M104.5 12.2461H104.964L105.171 11.8311C107.858 6.45029 113.42 2.75 119.844 2.75C120.842 2.75 121.825 2.83974 122.773 3.01143L122.774 3.01165C127.268 3.81792 131.124 6.46519 133.541 10.1389L133.544 10.1426C133.578 10.1938 133.59 10.2119 133.597 10.2267L133.608 10.2469L133.62 10.2665C133.876 10.6784 134.096 11.0537 134.276 11.3806C134.366 11.545 134.448 11.7026 134.52 11.8426L134.73 12.25H135.188H145.578C150.078 12.25 153.719 15.8908 153.719 20.3906V46.6836C153.719 51.1834 150.074 54.8281 145.574 54.8281H89.8945C85.3947 54.8281 81.75 51.1834 81.75 46.6836V20.3906C81.75 15.8908 85.3947 12.2461 89.8945 12.2461H104.5Z"
        fill="#FFA500" stroke="black" stroke-width="1.5" />
    <path
        d="M124.086 14.918C124.086 17.7722 121.772 20.0859 118.918 20.0859C116.064 20.0859 113.75 17.7722 113.75 14.918C113.75 12.0638 116.064 9.75 118.918 9.75C121.772 9.75 124.086 12.0638 124.086 14.918Z"
        fill="#FFA500" stroke="black" stroke-width="1.5" />
    <path
        d="M140.367 42.8203H96.2852C94.3322 42.8203 92.75 41.2381 92.75 39.2852C92.75 37.3322 94.3322 35.75 96.2852 35.75H140.367C142.32 35.75 143.902 37.3322 143.902 39.2852C143.902 41.2381 142.32 42.8203 140.367 42.8203Z"
        fill="#FFA500" stroke="black" stroke-width="1.5" />
    <g clip-path="url(#clip0_30_175)">
        <rect x="120" y="117.172" width="106" height="63.828" rx="9.11828" fill="white" />
        <mask id="path-11-inside-1_30_175" fill="white">
            <path d="M120 117.172H235.118V137.688H120V117.172Z" />
        </mask>
        <path d="M120 117.172H235.118V137.688H120V117.172Z" fill="#54B900" />
        <path d="M235.118 135.978H120V139.398H235.118V135.978Z" fill="black"
            mask="url(#path-11-inside-1_30_175)" />
        <circle cx="136.527" cy="149.656" r="2.84946" fill="black" />
        <line x1="145.93" y1="148.801" x2="211.468" y2="148.801" stroke="black"
            stroke-width="1.70968" stroke-linecap="round" />
        <circle cx="136.527" cy="161.054" r="2.84946" fill="black" />
        <path d="M145.075 161.054H187.817" stroke="black" stroke-width="1.70968"
            stroke-linecap="round" />
    </g>
    <rect x="120.855" y="118.027" width="104.29" height="62.1183" rx="8.26344" stroke="black"
        stroke-width="1.70968" />
    <g clip-path="url(#clip1_30_175)">
        <rect y="71" width="88.0179" height="53" rx="7.57143" fill="white" />
        <mask id="path-19-inside-2_30_175" fill="white">
            <path d="M0 71H88.0179V87.8801H0V71Z" />
        </mask>
        <path d="M0 71H88.0179V87.8801H0V71Z" fill="#3979FF" />
        <path d="M88.0179 86.0716H0V89.6887H88.0179V86.0716Z" fill="black"
            mask="url(#path-19-inside-2_30_175)" />
        <circle cx="13.7233" cy="97.9733" r="2.36607" fill="black" />
        <line x1="21.7258" y1="97.069" x2="75.7565" y2="97.069" stroke="black"
            stroke-width="1.80859" stroke-linecap="round" />
        <circle cx="13.7233" cy="107.437" r="2.36607" fill="black" />
        <path d="M20.8215 107.438H56.3125" stroke="black" stroke-width="1.80859"
            stroke-linecap="round" />
    </g>
    <rect x="0.904293" y="71.9043" width="86.2093" height="51.1914" rx="6.66714" stroke="black"
        stroke-width="1.80859" />
    <defs>
        <clipPath id="clip0_30_175">
            <rect x="120" y="117.172" width="106" height="63.828" rx="9.11828" fill="white" />
        </clipPath>
        <clipPath id="clip1_30_175">
            <rect y="71" width="88.0179" height="53" rx="7.57143" fill="white" />
        </clipPath>
    </defs>
</svg>
