<svg width="36" height="32" viewBox="0 0 36 32" fill="none" xmlns="http://www.w3.org/2000/svg">
    <path
        d="M13.6828 0.25H22.3172C23.7727 0.25 25.0594 1.17953 25.5164 2.55766L26.2477 4.75H31.5C33.982 4.75 36 6.76797 36 9.25V27.25C36 29.732 33.982 31.75 31.5 31.75H4.5C2.01445 31.75 0 29.732 0 27.25V9.25C0 6.76797 2.01445 4.75 4.5 4.75H9.75234L10.4836 2.55766C10.9406 1.17953 12.2273 0.25 13.6828 0.25ZM18 25C21.7266 25 24.75 21.9766 24.75 18.25C24.75 14.4602 21.7266 11.5 18 11.5C14.2102 11.5 11.25 14.4602 11.25 18.25C11.25 21.9766 14.2102 25 18 25Z"
        fill="#5E6EFF" />
    <path opacity="0.4"
        d="M24.75 18.25C24.75 21.9766 21.7266 25 18 25C14.2102 25 11.25 21.9766 11.25 18.25C11.25 14.4602 14.2102 11.5 18 11.5C21.7266 11.5 24.75 14.4602 24.75 18.25Z"
        fill="#5E6EFF" />
</svg>
