<svg width="37" height="36" viewBox="0 0 37 36" fill="none" xmlns="http://www.w3.org/2000/svg">
    <path
        d="M20.1875 8.4375V17.1L26.1852 21.0938C26.9586 21.6141 27.1695 22.6617 26.593 23.4352C26.1359 24.2086 25.0883 24.4195 24.3148 23.843L17.5648 19.343C17.0937 19.0898 16.8125 18.5625 16.8125 18V8.4375C16.8125 7.50234 17.5648 6.75 18.5 6.75C19.4352 6.75 20.1875 7.50234 20.1875 8.4375Z"
        fill="#8B3CEB" />
    <path opacity="0.4"
        d="M18.5 36C8.55781 36 0.5 27.9422 0.5 18C0.5 8.05781 8.55781 0 18.5 0C28.4422 0 36.5 8.05781 36.5 18C36.5 27.9422 28.4422 36 18.5 36ZM16.8125 18C16.8125 18.5625 17.0938 19.0898 17.5648 19.343L24.3148 23.843C25.0883 24.4195 26.1359 24.2086 26.593 23.4352C27.1695 22.6617 26.9586 21.6141 26.1852 21.0938L20.1875 17.1V8.4375C20.1875 7.50234 19.4352 6.75 18.4367 6.75C17.5648 6.75 16.7492 7.50234 16.7492 8.4375L16.8125 18Z"
        fill="#8B3CEB" />
</svg>
