<svg width="16" height="21" viewBox="0 0 16 21" fill="none" xmlns="http://www.w3.org/2000/svg">
    <path fill-rule="evenodd" clip-rule="evenodd"
        d="M9.33838 5.8125V0.5H1.44697C0.922191 0.5 0.5 0.917969 0.5 1.4375V19.5625C0.5 20.082 0.922191 20.5 1.44697 20.5H14.7045C15.2293 20.5 15.6515 20.082 15.6515 19.5625V6.75H10.2854C9.76452 6.75 9.33838 6.32812 9.33838 5.8125ZM15.6515 5.26172V5.5H10.601V0.5H10.8417C11.0942 0.5 11.3349 0.597656 11.5125 0.773438L15.3753 4.60156C15.5529 4.77734 15.6515 5.01562 15.6515 5.26172ZM3.5 11.5C3.5 10.9477 3.94772 10.5 4.5 10.5H8H11.5C12.0523 10.5 12.5 10.9477 12.5 11.5C12.5 12.0523 12.0523 12.5 11.5 12.5H8H4.5C3.94772 12.5 3.5 12.0523 3.5 11.5ZM4.5 14.5C3.94772 14.5 3.5 14.9477 3.5 15.5C3.5 16.0523 3.94772 16.5 4.5 16.5H8H11.5C12.0523 16.5 12.5 16.0523 12.5 15.5C12.5 14.9477 12.0523 14.5 11.5 14.5H8H4.5Z"
        fill="black" />
</svg>
