<svg width="16" height="20" viewBox="0 0 16 20" fill="none" xmlns="http://www.w3.org/2000/svg">
    <path fill-rule="evenodd" clip-rule="evenodd"
        d="M8.83838 5.3125V0H0.94697C0.422191 0 0 0.417969 0 0.9375V19.0625C0 19.582 0.422191 20 0.94697 20H14.2045C14.7293 20 15.1515 19.582 15.1515 19.0625V6.25H9.78535C9.26452 6.25 8.83838 5.82812 8.83838 5.3125ZM15.1515 4.76172V5H10.101V0H10.3417C10.5942 0 10.8349 0.0976562 11.0125 0.273438L14.8753 4.10156C15.0529 4.27734 15.1515 4.51562 15.1515 4.76172ZM3 11C3 10.4477 3.44772 10 4 10H7.5H11C11.5523 10 12 10.4477 12 11C12 11.5523 11.5523 12 11 12H7.5H4C3.44772 12 3 11.5523 3 11ZM4 14C3.44772 14 3 14.4477 3 15C3 15.5523 3.44772 16 4 16H7.5H11C11.5523 16 12 15.5523 12 15C12 14.4477 11.5523 14 11 14H7.5H4Z"
        fill="#8E8E93" />
</svg>
