<svg width="37" height="36" viewBox="0 0 37 36" fill="none" xmlns="http://www.w3.org/2000/svg">
    <path
        d="M16.8477 0.364142C17.8953 -0.120241 19.1047 -0.120241 20.1523 0.364142L35.5227 7.46802C36.1203 7.74224 36.5 8.3399 36.5 8.93756C36.5 9.65474 36.1203 10.2524 35.5227 10.5337L20.1523 17.6352C19.1047 18.1204 17.8953 18.1204 16.8477 17.6352L1.47945 10.5337C0.882359 10.2524 0.5 9.65474 0.5 8.93756C0.5 8.3399 0.882289 7.74224 1.47945 7.46802L16.8477 0.364142ZM35.5227 25.468C36.1203 25.7422 36.5 26.3399 36.5 26.9376C36.5 27.6547 36.1203 28.2524 35.5227 28.5336L20.1523 35.6352C19.1047 36.1204 17.8953 36.1204 16.8477 35.6352L1.47945 28.5336C0.882359 28.2524 0.5 27.6547 0.5 26.9376C0.5 26.3399 0.882289 25.7422 1.47945 25.468L5.22008 23.7383L15.9055 28.6743C17.5508 29.4407 19.4492 29.4407 21.0945 28.6743L31.782 23.7383L35.5227 25.468Z"
        fill="#57B5FE" />
    <path opacity="0.4"
        d="M21.0945 19.6745L31.782 14.7385L35.5227 16.4682C36.1203 16.7424 36.5 17.3401 36.5 17.9377C36.5 18.6549 36.1203 19.2526 35.5227 19.5338L20.1523 26.6354C19.1047 27.1206 17.8953 27.1206 16.8477 26.6354L1.47945 19.5338C0.882359 19.2526 0.5 18.6549 0.5 17.9377C0.5 17.3401 0.882289 16.7424 1.47945 16.4682L5.22008 14.7385L15.9055 19.6745C17.5508 20.4409 19.4492 20.4409 21.0945 19.6745Z"
        fill="#57B5FE" />
</svg>
