<svg width="16" height="20" viewBox="0 0 16 20" fill="none" xmlns="http://www.w3.org/2000/svg">
    <path
        d="M15.999 11.875C15.999 16.3633 12.4185 20 7.99952 20C3.58055 20 0 16.3633 0 11.875C0 7.8125 2.93444 4.44531 6.76882 3.84766V2.5H5.69197C5.43813 2.5 5.23045 2.28906 5.23045 2.03125V0.46875C5.23045 0.210938 5.43813 0 5.69197 0H10.3071C10.5609 0 10.7686 0.210938 10.7686 0.46875V2.03125C10.7686 2.28906 10.5609 2.5 10.3071 2.5H9.23021V3.84766C10.6724 4.07422 11.9877 4.69141 13.0646 5.58984L14.1222 4.51562C14.303 4.33203 14.5953 4.33203 14.776 4.51562L15.8644 5.62109C16.0452 5.80469 16.0452 6.10156 15.8644 6.28516L14.7337 7.43359L14.7107 7.45703C15.526 8.72266 15.999 10.2422 15.999 11.875ZM9.23021 13.2812V7.36328C9.23021 7.10547 9.02253 6.89453 8.7687 6.89453H7.23033C6.9765 6.89453 6.76882 7.10547 6.76882 7.36328V13.2812C6.76882 13.5391 6.9765 13.75 7.23033 13.75H8.7687C9.02253 13.75 9.23021 13.5391 9.23021 13.2812Z"
        fill="black" />
</svg>
