<svg width="23" height="23" viewBox="0 0 23 23" fill="none" xmlns="http://www.w3.org/2000/svg">
    <path
        d="M19.499 13.375C19.499 17.8633 15.9185 21.5 11.4995 21.5C7.08055 21.5 3.5 17.8633 3.5 13.375C3.5 9.3125 6.43444 5.94531 10.2688 5.34766V4H9.19197C8.93813 4 8.73045 3.78906 8.73045 3.53125V1.96875C8.73045 1.71094 8.93813 1.5 9.19197 1.5H13.8071C14.0609 1.5 14.2686 1.71094 14.2686 1.96875V3.53125C14.2686 3.78906 14.0609 4 13.8071 4H12.7302V5.34766C14.1724 5.57422 15.4877 6.19141 16.5646 7.08984L17.6222 6.01562C17.803 5.83203 18.0953 5.83203 18.276 6.01562L19.3644 7.12109C19.5452 7.30469 19.5452 7.60156 19.3644 7.78516L18.2337 8.93359L18.2107 8.95703C19.026 10.2227 19.499 11.7422 19.499 13.375ZM12.7302 14.7812V8.86328C12.7302 8.60547 12.5225 8.39453 12.2687 8.39453H10.7303C10.4765 8.39453 10.2688 8.60547 10.2688 8.86328V14.7812C10.2688 15.0391 10.4765 15.25 10.7303 15.25H12.2687C12.5225 15.25 12.7302 15.0391 12.7302 14.7812Z"
        fill="#8E8E93" />
</svg>
