<svg width="18" height="16" viewBox="0 0 18 16" fill="none" xmlns="http://www.w3.org/2000/svg">
<path d="M4.60611 4.27905C6.2622 2.62326 9.0144 2.62326 10.6705 4.27905C12.1598 5.76833 12.3802 8.14226 11.156 9.85493L11.1232 9.90259C10.8164 10.3285 10.2207 10.4298 9.79478 10.123C9.36587 9.81621 9.2646 9.2205 9.57139 8.79456L9.60415 8.74691C10.2862 7.79078 10.179 6.48319 9.348 5.65217C8.41273 4.7169 6.89068 4.7169 5.95243 5.65217L2.61047 8.99711C1.67192 9.90855 1.67192 11.4544 2.61047 12.3927C3.43851 13.2237 4.74909 13.3309 5.70223 12.6488L5.74988 12.5893C6.1788 12.3093 6.77451 12.4076 7.07833 12.8365C7.38512 13.2654 7.28683 13.8611 6.85791 14.1679L6.81026 14.2007C5.07077 15.4249 2.75046 15.2283 1.26148 13.742C-0.420492 12.0591 -0.420492 9.33071 1.26148 7.65079L4.60611 4.27905ZM13.3929 11.6927C11.71 13.3756 8.98461 13.3756 7.30172 11.6927C5.81243 10.2034 5.61883 7.85631 6.84302 6.14363L6.87578 6.09598C7.15577 5.67004 7.75148 5.56877 8.20423 5.87556C8.63314 6.15555 8.73441 6.75126 8.42762 7.20401L8.39486 7.25166C7.71276 8.18098 7.81999 9.51538 8.65101 10.3464C9.58628 11.2817 11.1083 11.2817 12.0466 10.3464L15.3885 7.00146C16.3268 6.06321 16.3268 4.51734 15.3885 3.60589C14.5605 2.77576 13.2499 2.66734 12.2968 3.34974L12.2491 3.3825C11.8202 3.68929 11.2245 3.56419 10.9207 3.16149C10.6139 2.73317 10.7122 2.13775 11.1411 1.83186L11.1888 1.7985C12.9014 0.574631 15.2485 0.768804 16.7378 2.25779C18.4207 3.93949 18.4207 6.66786 16.7378 8.34778L13.3929 11.6927Z" fill="black"/>
</svg>
