<svg width="18" height="12" viewBox="0 0 18 12" fill="none" xmlns="http://www.w3.org/2000/svg">
    <path
        d="M17.5329 4.00029C16.0755 4.10966 13.9963 5.7096 12.9441 6.23458C12.1253 6.64394 11.4192 6.99706 10.803 6.99706C10.1672 6.99706 10.0715 6.49083 10.2037 5.37524C10.2347 5.12525 10.5329 2.90033 9.00238 2.9972C8.29619 3.04408 7.19331 3.77218 4.23353 6.93456L5.40112 3.69405C6.25642 1.32226 3.90435 -1.04015 1.75204 0.48167L0.207434 1.63475C-0.000763408 1.78162 -0.06266 2.09099 0.0695736 2.32535L0.553492 3.16907C0.685726 3.40344 0.964261 3.47219 1.17527 3.32219L2.80709 2.10661C3.32477 1.741 3.95218 2.3316 3.7271 2.95345L0.964261 10.6282C0.772944 11.1563 1.04022 12 1.79986 12C2.03338 12 2.26409 11.9 2.43571 11.7063C3.623 10.3876 6.78817 6.99706 8.37778 5.58773C8.31589 6.47833 8.3187 7.42829 8.95736 8.20639C9.38783 8.73137 10.0068 8.99698 10.8002 8.99698C11.8018 8.99698 12.7134 8.54075 13.6784 8.05952C14.6068 7.59704 16.4637 6.10334 17.5722 6.00334C17.8114 5.98147 17.9999 5.77523 17.9999 5.50961V4.50652C18.0055 4.22216 17.7889 3.98154 17.5329 4.00029Z"
        fill="black" />
</svg>
