<svg width="24" height="24" viewBox="0 0 24 24" fill="none" xmlns="http://www.w3.org/2000/svg">
    <path
        d="M20.5329 10.0003C19.0755 10.1097 16.9963 11.7096 15.9441 12.2346C15.1253 12.6439 14.4192 12.9971 13.803 12.9971C13.1672 12.9971 13.0715 12.4908 13.2037 11.3752C13.2347 11.1253 13.5329 8.90033 12.0024 8.9972C11.2962 9.04408 10.1933 9.77218 7.23353 12.9346L8.40112 9.69405C9.25642 7.32226 6.90435 4.95985 4.75204 6.48167L3.20743 7.63475C2.99924 7.78162 2.93734 8.09099 3.06957 8.32535L3.55349 9.16907C3.68573 9.40344 3.96426 9.47219 4.17527 9.32219L5.80709 8.10661C6.32477 7.741 6.95218 8.3316 6.7271 8.95345L3.96426 16.6282C3.77294 17.1563 4.04022 18 4.79986 18C5.03338 18 5.26409 17.9 5.43571 17.7063C6.623 16.3876 9.78817 12.9971 11.3778 11.5877C11.3159 12.4783 11.3187 13.4283 11.9574 14.2064C12.3878 14.7314 13.0068 14.997 13.8002 14.997C14.8018 14.997 15.7134 14.5408 16.6784 14.0595C17.6068 13.597 19.4637 12.1033 20.5722 12.0033C20.8114 11.9815 20.9999 11.7752 20.9999 11.5096V10.5065C21.0055 10.2222 20.7889 9.98154 20.5329 10.0003Z"
        fill="#68C31D" />
</svg>
