<svg width="16" height="18" viewBox="0 0 16 18" fill="none" xmlns="http://www.w3.org/2000/svg">
    <path
        d="M5.1875 1.125C5.1875 0.503789 5.69023 0 6.3125 0H9.6875C10.3098 0 10.8125 0.503789 10.8125 1.125C10.8125 1.74621 10.3098 2.25 9.6875 2.25H9.125V3.46113C8.75938 3.40453 8.3832 3.375 8 3.375C7.6168 3.375 7.24062 3.40453 6.875 3.46113V2.25H6.3125C5.69023 2.25 5.1875 1.74621 5.1875 1.125ZM13.393 4.26797C13.8324 3.82852 14.5426 3.82852 14.982 4.26797C15.4215 4.70742 15.4215 5.41758 14.982 5.85703L14.1348 6.70781C13.7234 6.07148 13.2137 5.50547 12.6301 5.02734L13.393 4.26797ZM8.84375 11.25C8.84375 11.7176 8.46758 12.0938 8 12.0938C7.53242 12.0938 7.15625 11.7176 7.15625 11.25V6.75C7.15625 6.28242 7.53242 5.90625 8 5.90625C8.46758 5.90625 8.84375 6.28242 8.84375 6.75V11.25Z"
        fill="#9F5BF5" />
    <path opacity="0.4"
        d="M0.6875 10.6875C0.6875 6.64805 3.96055 3.375 8 3.375C12.0395 3.375 15.3125 6.64805 15.3125 10.6875C15.3125 14.727 12.0395 18 8 18C3.96055 18 0.6875 14.727 0.6875 10.6875ZM8.84375 6.75C8.84375 6.28242 8.46758 5.90625 8 5.90625C7.53242 5.90625 7.15625 6.28242 7.15625 6.75V11.25C7.15625 11.7176 7.53242 12.0938 8 12.0938C8.46758 12.0938 8.84375 11.7176 8.84375 11.25V6.75Z"
        fill="#9F5BF5" />
</svg>
