<svg width="105" height="41" viewBox="0 0 105 41" fill="none" xmlns="http://www.w3.org/2000/svg">
<path d="M21.7928 13.7869L21.7928 13.787L15.7928 19.7899C15.4025 20.1803 15.4025 20.8136 15.7928 21.2041L21.7928 27.207L22.1428 26.8571L21.7928 27.207C22.1834 27.5977 22.8163 27.5973 23.2068 27.2072L23.2071 27.207C23.5973 26.8165 23.5973 26.1832 23.2071 25.7927L17.9139 20.4968L23.2071 15.2012L23.213 15.1952L23.213 15.1951C23.5874 14.8077 23.5874 14.193 23.2131 13.8054L21.7928 13.7869ZM21.7928 13.7869L21.799 13.7809M21.7928 13.7869L21.799 13.7809M21.799 13.7809C22.1964 13.3969 22.8293 13.4081 23.213 13.8053L21.799 13.7809Z" fill="#FFA500" stroke="#FFA500"/>
<line x1="19.5002" y1="20.5" x2="53.5002" y2="20.5" stroke="#FFA500" stroke-width="3" stroke-linecap="round" stroke-linejoin="round"/>
</svg>
