<svg width="255" height="156" viewBox="0 0 255 156" fill="none" xmlns="http://www.w3.org/2000/svg">
<circle cx="28.2495" cy="28.2495" r="28.8484" transform="matrix(0.989651 -0.143493 -0.0413525 0.999145 131.083 14.7134)" fill="black" stroke="black" stroke-width="1.19785"/>
<circle cx="28.2495" cy="28.2495" r="28.9995" transform="matrix(0.989651 -0.143493 -0.0413525 0.999145 126.336 11.9697)" fill="#FFA500" stroke="black" stroke-width="1.5"/>
<path d="M154.072 39.6852L152.585 41.2607C152.425 41.5105 152.166 41.6531 151.898 41.6919L150.225 41.9345L150.155 43.6235C150.132 44.1851 149.666 44.7018 149.109 44.7824L147.437 45.025L147.367 46.714C147.343 47.2756 146.877 47.7923 146.321 47.873L142.975 48.3581C142.421 48.4385 141.99 48.0518 142.013 47.4902L142.153 44.1122C142.164 43.842 142.281 43.5691 142.477 43.3518L149.504 35.5628C149.307 34.882 149.218 34.1353 149.25 33.3457C149.42 29.2414 152.854 25.4361 156.919 24.8467C160.984 24.2573 164.142 27.1068 163.972 31.2111C163.802 35.3154 160.369 39.1206 156.304 39.71C155.522 39.8234 154.77 39.8107 154.072 39.6852ZM158.284 32.0358C159.209 31.9018 159.989 31.0374 160.027 30.1042C160.066 29.171 159.348 28.5237 158.424 28.6578C157.5 28.7918 156.72 29.6562 156.681 30.5893C156.643 31.5225 157.36 32.1698 158.284 32.0358Z" fill="black"/>
<circle cx="40.5356" cy="40.5356" r="41.0356" transform="matrix(0.980785 -0.19509 -0.221378 0.975188 175.064 73.5864)" fill="black" stroke="black"/>
<circle cx="40.5356" cy="40.5356" r="41.2856" transform="matrix(0.980785 -0.19509 -0.221378 0.975188 170.016 68.8159)" fill="#FFA500" stroke="black" stroke-width="1.5"/>
<g clip-path="url(#clip0_117_5538)">
<path d="M205.804 95.9395L207.783 95.5213C209.967 95.0599 211.328 96.4477 210.818 98.616L208.048 110.41C207.539 112.578 205.35 114.716 203.166 115.178L183.372 119.36C181.186 119.822 179.828 118.434 180.337 116.265L183.107 104.472C183.616 102.303 185.802 100.166 187.989 99.7038L201.845 96.7761L202.537 93.8276C203.685 88.9424 208.605 84.1392 213.522 83.1001C218.44 82.061 221.499 85.1781 220.352 90.0633L219.659 93.0118C219.404 94.099 218.313 95.1643 217.218 95.3956C216.124 95.627 215.445 94.9355 215.701 93.8483L216.393 90.8998C217.031 88.186 215.333 86.4537 212.599 87.0314C209.865 87.6091 207.134 90.2773 206.496 92.9911L205.804 95.9395Z" fill="black"/>
</g>
<circle cx="46.8571" cy="46.8571" r="47.3571" transform="matrix(0.994522 -0.104528 0.205179 0.978724 5.81799 44.9219)" fill="black" stroke="black"/>
<circle cx="46.8571" cy="46.8571" r="47.6071" transform="matrix(0.994522 -0.104528 0.205179 0.978724 15.9064 38.7964)" fill="#FFA500" stroke="black" stroke-width="1.5"/>
<path d="M68.2963 59.5835C74.7444 58.8207 81.0145 63.3664 82.2959 69.7375L83.0693 73.5828L84.367 73.4292C87.2301 73.0905 90.0203 75.1143 90.5891 77.9421L93.6826 93.3231C94.2514 96.151 92.386 98.7255 89.5229 99.0642L63.5686 102.135C60.7015 102.474 57.9153 100.45 57.3466 97.6219L54.253 82.2409C53.6843 79.413 55.5456 76.839 58.4127 76.4998L59.7104 76.3463L58.937 72.501C57.6556 66.1299 61.8483 60.3464 68.2963 59.5835ZM69.3275 64.7105C65.7426 65.1346 63.4161 68.3477 64.1279 71.8869L64.9013 75.7322L77.8785 74.1969L77.1051 70.3516C76.3932 66.8124 72.9125 64.2864 69.3275 64.7105ZM76.0477 84.9115C75.7625 83.4935 74.3722 82.4852 72.9366 82.655C71.501 82.8249 70.5716 84.1076 70.8568 85.5256L71.888 90.6526C72.1732 92.0705 73.5634 93.0789 74.999 92.909C76.4346 92.7392 77.364 91.4564 77.0789 90.0385L76.0477 84.9115Z" fill="black"/>
<defs>
<clipPath id="clip0_117_5538">
<rect width="48.2978" height="48.2978" fill="white" transform="matrix(0.983599 -0.207838 -0.229416 0.976755 182.709 82.1387)"/>
</clipPath>
</defs>
</svg>
