<svg width="18" height="15" viewBox="0 0 18 15" fill="none" xmlns="http://www.w3.org/2000/svg">
<path d="M8.73788 4.51243C8.82539 4.50305 8.91289 4.49993 9.00039 4.49993C10.6567 4.49993 12.0005 5.81561 12.0005 7.50006C12.0005 9.15638 10.6567 10.5002 9.00039 10.5002C7.31595 10.5002 6.00026 9.15638 6.00026 7.50006C6.00026 7.41256 6.00339 7.32505 6.01276 7.23755C6.3034 7.37818 6.64092 7.50006 7.00031 7.50006C8.10348 7.50006 9.00039 6.60315 9.00039 5.49997C9.00039 5.14058 8.87851 4.80307 8.73788 4.51243ZM15.0194 3.01861C16.482 4.37492 17.4601 5.97187 17.9227 7.11567C18.0258 7.36255 18.0258 7.63756 17.9227 7.88445C17.4601 9.00012 16.482 10.5971 15.0194 11.9815C13.5475 13.3503 11.5255 14.5004 9.00039 14.5004C6.47528 14.5004 4.45332 13.3503 2.98201 11.9815C1.51944 10.5971 0.541902 9.00012 0.0769135 7.88445C-0.0256378 7.63756 -0.0256378 7.36255 0.0769135 7.11567C0.541902 5.97187 1.51944 4.37492 2.98201 3.01861C4.45332 1.65106 6.47528 0.499756 9.00039 0.499756C11.5255 0.499756 13.5475 1.65106 15.0194 3.01861ZM9.00039 2.99986C6.51591 2.99986 4.5002 5.01558 4.5002 7.50006C4.5002 9.98454 6.51591 12.0003 9.00039 12.0003C11.4849 12.0003 13.5006 9.98454 13.5006 7.50006C13.5006 5.01558 11.4849 2.99986 9.00039 2.99986Z" fill="#C7C7CC"/>
</svg>
